HIERARCHY
ROOT Hips
{
  OFFSET 5.84602e-005 68.8428 3.50346
  CHANNELS 6 Xposition Yposition Zposition Zrotation Xrotation Yrotation
  JOINT Spine
  {
    OFFSET 0 8.597 -4.6522
    CHANNELS 3 Zrotation Xrotation Yrotation
    JOINT Spine1
    {
      OFFSET 0 7.8454 0.4098
      CHANNELS 3 Zrotation Xrotation Yrotation
      JOINT Spine2
      {
        OFFSET 0 9.7078 -2.1609
        CHANNELS 3 Zrotation Xrotation Yrotation
        JOINT Neck
        {
          OFFSET 0 21.8761 -0.4549
          CHANNELS 3 Zrotation Xrotation Yrotation
          JOINT Head
          {
            OFFSET 0 12.3537 3.3602
            CHANNELS 3 Zrotation Xrotation Yrotation
            End Site
            {
              OFFSET 0.0001 18.9506 0.5657
            }
          }
        }
        JOINT LeftShoulder
        {
          OFFSET 2.2086 21.1115 7.2329
          CHANNELS 3 Zrotation Xrotation Yrotation
          JOINT LeftArm
          {
            OFFSET 13.1193 3.0282 -4.8998
            CHANNELS 3 Zrotation Xrotation Yrotation
            JOINT LeftForeArm
            {
              OFFSET 27.4081 -0.0973053 -0.2375
              CHANNELS 3 Zrotation Xrotation Yrotation
              JOINT LeftHand
              {
                OFFSET 22.8641 0.0662994 -0.1369
                CHANNELS 3 Zrotation Xrotation Yrotation
                JOINT LeftHandIndex1
                {
                  OFFSET 8.8614 0.775009 2.4612
                  CHANNELS 3 Zrotation Xrotation Yrotation
                  JOINT LeftHandIndex2
                  {
                    OFFSET 3.3146 -0.808304 0.5841
                    CHANNELS 3 Zrotation Xrotation Yrotation
                    JOINT LeftHandIndex3
                    {
                      OFFSET 2.2628 -0.552002 0.3989
                      CHANNELS 3 Zrotation Xrotation Yrotation
                      End Site
                      {
                        OFFSET 1.6102 -0.4807 0.2612
                      }
                    }
                  }
                }
                JOINT LeftHandMiddle1
                {
                  OFFSET 8.9937 0.895004 0.2143
                  CHANNELS 3 Zrotation Xrotation Yrotation
                  JOINT LeftHandMiddle2
                  {
                    OFFSET 4.0984 0.0113983 -0.0242
                    CHANNELS 3 Zrotation Xrotation Yrotation
                    JOINT LeftHandMiddle3
                    {
                      OFFSET 2.2716 0.00689697 -0.0138001
                      CHANNELS 3 Zrotation Xrotation Yrotation
                      End Site
                      {
                        OFFSET 2.0404 -0.1441 0.0027
                      }
                    }
                  }
                }
                JOINT LeftHandRing1
                {
                  OFFSET 8.5234 0.597198 -2.0164
                  CHANNELS 3 Zrotation Xrotation Yrotation
                  JOINT LeftHandRing2
                  {
                    OFFSET 3.7188 -0.188293 -0.2328
                    CHANNELS 3 Zrotation Xrotation Yrotation
                    JOINT LeftHandRing3
                    {
                      OFFSET 2.1191 -0.106598 -0.1332
                      CHANNELS 3 Zrotation Xrotation Yrotation
                      End Site
                      {
                        OFFSET 1.8737 -0.2304 -0.0886
                      }
                    }
                  }
                }
                JOINT LeftHandPinky1
                {
                  OFFSET 7.9094 -0.601089 -3.4825
                  CHANNELS 3 Zrotation Xrotation Yrotation
                  JOINT LeftHandPinky2
                  {
                    OFFSET 2.2874 -0.477005 -0.6314
                    CHANNELS 3 Zrotation Xrotation Yrotation
                    JOINT LeftHandPinky3
                    {
                      OFFSET 1.6774 -0.349396 -0.4633
                      CHANNELS 3 Zrotation Xrotation Yrotation
                      End Site
                      {
                        OFFSET 1.4888 -0.4091 -0.3416
                      }
                    }
                  }
                }
                JOINT LeftHandThumb1
                {
                  OFFSET 1.833 -1.3875 1.3896
                  CHANNELS 3 Zrotation Xrotation Yrotation
                  JOINT LeftHandThumb2
                  {
                    OFFSET 3.4129 -1.121 2.5732
                    CHANNELS 3 Zrotation Xrotation Yrotation
                    JOINT LeftHandThumb3
                    {
                      OFFSET 2.2474 -0.804199 1.6192
                      CHANNELS 3 Zrotation Xrotation Yrotation
                      End Site
                      {
                        OFFSET 1.6527 -0.5689 1.1317
                      }
                    }
                  }
                }
              }
            }
          }
        }
        JOINT RightShoulder
        {
          OFFSET -2.2086 21.1115 7.2329
          CHANNELS 3 Zrotation Xrotation Yrotation
          JOINT RightArm
          {
            OFFSET -13.1216 3.0287 -4.9007
            CHANNELS 3 Zrotation Xrotation Yrotation
            JOINT RightForeArm
            {
              OFFSET -27.4081 -0.0973053 -0.2375
              CHANNELS 3 Zrotation Xrotation Yrotation
              JOINT RightHand
              {
                OFFSET -22.8641 0.0664063 -0.1369
                CHANNELS 3 Zrotation Xrotation Yrotation
                JOINT RightHandIndex1
                {
                  OFFSET -8.8614 0.774994 2.4612
                  CHANNELS 3 Zrotation Xrotation Yrotation
                  JOINT RightHandIndex2
                  {
                    OFFSET -3.3146 -0.808304 0.5841
                    CHANNELS 3 Zrotation Xrotation Yrotation
                    JOINT RightHandIndex3
                    {
                      OFFSET -2.2628 -0.552002 0.3989
                      CHANNELS 3 Zrotation Xrotation Yrotation
                      End Site
                      {
                        OFFSET -1.6102 -0.4807 0.2612
                      }
                    }
                  }
                }
                JOINT RightHandMiddle1
                {
                  OFFSET -8.9937 0.894989 0.2143
                  CHANNELS 3 Zrotation Xrotation Yrotation
                  JOINT RightHandMiddle2
                  {
                    OFFSET -4.0984 0.0113983 -0.0242
                    CHANNELS 3 Zrotation Xrotation Yrotation
                    JOINT RightHandMiddle3
                    {
                      OFFSET -2.2716 0.00691223 -0.0138001
                      CHANNELS 3 Zrotation Xrotation Yrotation
                      End Site
                      {
                        OFFSET -2.0404 -0.1441 0.0027
                      }
                    }
                  }
                }
                JOINT RightHandRing1
                {
                  OFFSET -8.5234 0.597198 -2.0164
                  CHANNELS 3 Zrotation Xrotation Yrotation
                  JOINT RightHandRing2
                  {
                    OFFSET -3.7188 -0.188309 -0.2328
                    CHANNELS 3 Zrotation Xrotation Yrotation
                    JOINT RightHandRing3
                    {
                      OFFSET -2.1191 -0.106598 -0.1332
                      CHANNELS 3 Zrotation Xrotation Yrotation
                      End Site
                      {
                        OFFSET -1.8737 -0.2304 -0.0886
                      }
                    }
                  }
                }
                JOINT RightHandPinky1
                {
                  OFFSET -7.9094 -0.601105 -3.4825
                  CHANNELS 3 Zrotation Xrotation Yrotation
                  JOINT RightHandPinky2
                  {
                    OFFSET -2.2874 -0.477005 -0.6314
                    CHANNELS 3 Zrotation Xrotation Yrotation
                    JOINT RightHandPinky3
                    {
                      OFFSET -1.6774 -0.349396 -0.4633
                      CHANNELS 3 Zrotation Xrotation Yrotation
                      End Site
                      {
                        OFFSET -1.4888 -0.4091 -0.3416
                      }
                    }
                  }
                }
                JOINT RightHandThumb1
                {
                  OFFSET -1.833 -1.38751 1.3896
                  CHANNELS 3 Zrotation Xrotation Yrotation
                  JOINT RightHandThumb2
                  {
                    OFFSET -3.41299 -1.12099 2.5732
                    CHANNELS 3 Zrotation Xrotation Yrotation
                    JOINT RightHandThumb3
                    {
                      OFFSET -2.24741 -0.804108 1.6192
                      CHANNELS 3 Zrotation Xrotation Yrotation
                      End Site
                      {
                        OFFSET -1.6527 -0.5689 1.1317
                      }
                    }
                  }
                }
              }
            }
          }
        }
      }
    }
  }
  JOINT RightUpLeg
  {
    OFFSET -9.1966 3.8861 -0.7581
    CHANNELS 3 Zrotation Xrotation Yrotation
    JOINT RightLeg
    {
      OFFSET -0.7359 -41.0265 0
      CHANNELS 3 Zrotation Xrotation Yrotation
      JOINT RightFoot
      {
        OFFSET 0 -40.2855 0
        CHANNELS 3 Zrotation Xrotation Yrotation
        JOINT RightToeBase
        {
          OFFSET 0 -5.6122 11.7359
          CHANNELS 3 Zrotation Xrotation Yrotation
          End Site
          {
            OFFSET 0 0 7.8731
          }
        }
      }
    }
  }
  JOINT LeftUpLeg
  {
    OFFSET 9.1965 3.8864 -0.7581
    CHANNELS 3 Zrotation Xrotation Yrotation
    JOINT LeftLeg
    {
      OFFSET 0.7359 -41.0268 0
      CHANNELS 3 Zrotation Xrotation Yrotation
      JOINT LeftFoot
      {
        OFFSET 0 -40.2855 0
        CHANNELS 3 Zrotation Xrotation Yrotation
        JOINT LeftToeBase
        {
          OFFSET 0 -5.6122 11.7359
          CHANNELS 3 Zrotation Xrotation Yrotation
          End Site
          {
            OFFSET 0 0 7.8731
          }
        }
      }
    }
  }
}
MOTION
Frames:	4
Frame Time:	0.0333333
5.84602e-005 68.8428 3.50346 0 0 -0 0 0 -0 0 0 -0 0 0 -0 0 0 -0 0 0 -0 0 0 -0 0 0 -0 0 0 -0 0 0 -0 0 0 -0 0 0 -0 0 0 -0 0 0 -0 -0.0146107 -8.87603e-005 -2.63497e-007 2.99804e-018 -2.42657e-020 -1.42182e-022 0 0 -0 -0.0187562 -0.001176 5.858e-005 5.06224e-018 3.88251e-019 1.21329e-020 0 0 -0 -0.012269 -0.00324817 0.000675346 -1.74678e-018 3.88251e-019 -0 0 0 -0 0 0 -0 0 0 -0 0 0 -0 0 0 -0 0 0 -0 0 0 -0 0 0 -0 0 0 -0 0 0 -0 0 0 -0 0.0149955 -9.10982e-005 2.64101e-007 -9.69331e-018 1.21329e-020 -4.7394e-023 0 0 -0 0.0189956 -0.00119102 -5.96516e-005 -5.41541e-019 0 2.42657e-020 0 0 -0 0.0122698 -0.00324857 -0.000673756 -2.00796e-019 0 -1.94126e-019 0 0 -0 0 0 -0 0 0 -0 3.39842 1.33031 -0.0637918 -5.65207e-008 0.834868 -0.000436188 -3.39935 -2.16518 -0.0642563 -8.89002e-024 -1.18485e-023 -1.48106e-024 -3.39844 1.35642 0.0640283 -3.18788e-007 0.782166 -0.000588827 3.39931 -2.13858 0.0634662 1.1399e-023 0 -0 
-0.00796014 36.574 7.14637 132.698 -66.6673 -0.476482 -1.20957 -5.68201 -0.444754 -2.48221 -11.3531 -1.01824 -2.4822 -11.3531 -1.01824 0.0193524 0.0723388 -0.00454408 -1.24923e-006 0.0135074 -5.14362e-006 -27.5372 -8.5594 9.2482 -7.47888 16.3453 -30.7773 41.4226 11.1682 -48.1406 -5.14893 -39.0646 -0.0247369 3.43014e-007 1.60801e-007 -7.62677e-007 1.52535e-006 1.22264e-007 6.86028e-007 3.43014e-007 1.60801e-007 -7.62677e-007 3.43014e-007 1.60801e-007 -7.62677e-007 -0.0146025 -8.67092e-005 -1.85586e-006 3.43021e-007 1.60898e-007 -7.62657e-007 3.43014e-007 1.60801e-007 -7.62677e-007 -0.0187958 -0.00117644 5.81269e-005 3.43016e-007 1.60926e-007 -7.62655e-007 3.43014e-007 1.60801e-007 -7.62677e-007 -0.0123232 -0.00326061 0.000681754 3.43e-007 1.60882e-007 -7.6267e-007 3.43014e-007 1.60801e-007 -7.62677e-007 1.52535e-006 1.22264e-007 6.86028e-007 3.43014e-007 1.60801e-007 -7.62677e-007 12.7754 2.66482 15.5657 -1.45884 4.67808 37.9482 0.391772 0.014789 5.01402 -13.0717 -28.0848 -4.20209 -7.95139e-016 3.18055e-015 -0 -8.82781e-032 -3.18055e-015 -1.59028e-015 0 0 -0 -7.95139e-016 3.18055e-015 -0 0.0149761 -9.49393e-005 -1.42092e-006 1.59028e-015 -6.36111e-015 -0 -7.95139e-016 3.18055e-015 -0 0.0190309 -0.00119365 -6.1179e-005 -7.95139e-016 -6.36111e-015 4.77083e-015 -7.95139e-016 3.18055e-015 -0 0.0122632 -0.00324747 -0.000672382 7.95139e-016 -6.36111e-015 1.59028e-015 -7.95139e-016 3.18055e-015 -0 -8.82781e-032 -3.18055e-015 -1.59028e-015 0 0 -0 -99.3223 -78.0099 -111.784 143.202 67.4434 -110.206 -10.7603 30.4932 -1.78988 3.96902e-006 -1.0783e-006 3.01412e-006 93.5255 -78.6154 105.99 -143.53 67.2637 110.512 13.1191 23.8364 2.76044 3.32077e-007 -2.89503e-007 7.27667e-007 
0.816737 15.8609 6.36918 15.3856 -83.3257 -177.645 -1.82604 -8.23574 -0.571816 -3.79574 -16.4481 -1.43434 -3.79573 -16.4481 -1.43434 -0.0674343 0.203235 0.0157501 -3.23563e-007 0.0745219 3.01225e-007 -39.0138 -12.2317 13.5731 -5.41213 19.7978 -45.9239 64.6164 8.59747 -69.9003 -7.22726 -56.5312 0.06745 -6.36111e-015 3.97569e-015 -3.18055e-015 -6.36111e-015 2.38542e-015 -3.18055e-015 -9.54166e-015 0 3.18055e-015 -6.36111e-015 3.97569e-015 -3.18055e-015 -0.0145955 -8.08257e-005 -6.43915e-006 3.18055e-015 7.95139e-015 -0 -6.36111e-015 3.97569e-015 -3.18055e-015 -0.0187022 -0.00117703 6.62727e-005 -3.18055e-015 3.18055e-015 3.18055e-015 -6.36111e-015 3.97569e-015 -3.18055e-015 -0.0122923 -0.00325513 0.000674984 -2.51053e-007 -5.53271e-007 -1.38782e-006 -6.36111e-015 3.97569e-015 -3.18055e-015 -6.36111e-015 2.38542e-015 -3.18055e-015 -9.54166e-015 0 3.18055e-015 18.0603 3.70394 22.595 -3.66405 4.95006 55.0047 0.517685 0.0611734 7.51465 -20.8164 -40.5987 -7.08603 -1.22436e-006 1.00539e-006 -1.74589e-006 -3.53113e-031 -6.36111e-015 -3.18055e-015 2.04258e-006 2.73954e-007 1.23959e-006 -1.22436e-006 1.00539e-006 -1.74589e-006 0.0150372 -8.6732e-005 1.02294e-005 2.04462e-006 2.74105e-007 1.23955e-006 -1.22436e-006 1.00539e-006 -1.74589e-006 0.0190001 -0.00119137 -6.26277e-005 4.63657e-007 7.24916e-007 -2.87028e-007 -1.22436e-006 1.00539e-006 -1.74589e-006 0.0123304 -0.00326517 -0.000683179 2.04428e-006 2.73658e-007 1.23941e-006 -1.22436e-006 1.00539e-006 -1.74589e-006 -3.53113e-031 -6.36111e-015 -3.18055e-015 2.04258e-006 2.73954e-007 1.23959e-006 -149.604 -39.4631 -157.817 -157.134 33.6188 -141.963 -10.9333 47.9589 -5.25447 1.63118e-006 5.53485e-007 1.13615e-006 149.304 -39.855 158.051 156.278 34.5679 142.542 12.8455 40.7007 6.3387 1.76747e-007 1.73101e-007 3.475e-007 
0.0165681 20.3536 6.67892 89.3125 -89.7452 -90.4204 -1.68549 -7.66853 -0.54765 -3.49319 -15.3169 -1.34334 -3.49318 -15.3169 -1.34334 -0.260248 0.393881 0.0608923 -1.14002e-006 0.18301 2.27818e-008 -36.5132 -11.4307 12.5987 -6.23435 19.4729 -42.2751 59.2535 9.43662 -65.4415 -6.23089 -52.3995 0.276931 -1.64114e-006 2.7067e-007 -1.73866e-006 3.94442e-007 -6.22261e-007 -4.29816e-007 1.64114e-006 -2.7067e-007 1.73866e-006 -1.64114e-006 2.7067e-007 -1.73866e-006 -0.0146164 -9.06279e-005 1.64784e-006 -1.63967e-006 2.70901e-007 -1.73862e-006 -1.64114e-006 2.7067e-007 -1.73866e-006 -0.0188175 -0.00118147 5.79188e-005 -0 -6.36111e-015 -0 -1.64114e-006 2.7067e-007 -1.73866e-006 -0.01232 -0.00326209 0.000678069 -6.36111e-015 4.77083e-015 9.54166e-015 -1.64114e-006 2.7067e-007 -1.73866e-006 3.94442e-007 -6.22261e-007 -4.29816e-007 1.64114e-006 -2.7067e-007 1.73866e-006 16.9092 3.48612 21.0311 -2.65313 5.05037 50.9767 0.379771 0.139336 7.50224 -19.2012 -37.8306 -6.34024 -1.94012e-007 -3.36954e-007 1.75622e-007 -9.54166e-015 4.77083e-015 -0 -3.88024e-007 -6.73908e-007 3.51244e-007 -1.94012e-007 -3.36954e-007 1.75622e-007 0.0149718 -9.07361e-005 2.5437e-006 -3.8802e-007 -6.73862e-007 3.51332e-007 -1.94012e-007 -3.36954e-007 1.75622e-007 0.0189845 -0.00118928 -6.03787e-005 -6.5769e-007 -1.09564e-006 -4.09029e-007 -1.94012e-007 -3.36954e-007 1.75622e-007 0.0122202 -0.00323594 -0.000679613 -3.88007e-007 -6.73873e-007 3.51326e-007 -1.94012e-007 -3.36954e-007 1.75622e-007 -9.54166e-015 4.77083e-015 -0 -3.88024e-007 -6.73908e-007 3.51244e-007 -145.693 -49.1917 -156.486 -165.411 41.9631 -140.817 -11.0387 44.3002 -4.8356 3.92645e-006 -1.00513e-006 1.124e-006 145.415 -49.5714 156.495 165.246 42.3287 140.962 13.5739 37.2839 5.81907 1.03925e-006 6.88898e-007 2.22744e-006 
